<mxfile host="app.diagrams.net" modified="2022-09-09T18:36:09.649Z" agent="5.0 (X11; Linux x86_64) AppleWebKit/537.36 (KHTML, like Gecko) Chrome/104.0.5112.102 Safari/537.36 Edg/104.0.1293.70" etag="pe0cLsZZudG459cO42uf" version="20.3.0" type="github">
  <diagram id="C5RBs43oDa-KdzZeNtuy" name="Page-1">
    <mxGraphModel dx="1063" dy="478" grid="1" gridSize="10" guides="1" tooltips="1" connect="1" arrows="1" fold="1" page="1" pageScale="1" pageWidth="827" pageHeight="1169" math="0" shadow="0">
      <root>
        <mxCell id="WIyWlLk6GJQsqaUBKTNV-0" />
        <mxCell id="WIyWlLk6GJQsqaUBKTNV-1" parent="WIyWlLk6GJQsqaUBKTNV-0" />
        <mxCell id="ABSqNP8Waz9jzryBTXlx-0" value="Manager" style="swimlane;fontStyle=1;align=center;verticalAlign=top;childLayout=stackLayout;horizontal=1;startSize=26;horizontalStack=0;resizeParent=1;resizeParentMax=0;resizeLast=0;collapsible=1;marginBottom=0;" vertex="1" parent="WIyWlLk6GJQsqaUBKTNV-1">
          <mxGeometry x="213" y="628" width="160" height="34" as="geometry" />
        </mxCell>
        <mxCell id="ABSqNP8Waz9jzryBTXlx-2" value="" style="line;strokeWidth=1;fillColor=none;align=left;verticalAlign=middle;spacingTop=-1;spacingLeft=3;spacingRight=3;rotatable=0;labelPosition=right;points=[];portConstraint=eastwest;strokeColor=inherit;" vertex="1" parent="ABSqNP8Waz9jzryBTXlx-0">
          <mxGeometry y="26" width="160" height="8" as="geometry" />
        </mxCell>
        <mxCell id="ABSqNP8Waz9jzryBTXlx-5" value="" style="endArrow=block;dashed=1;endFill=0;endSize=12;html=1;rounded=0;exitX=0.5;exitY=0;exitDx=0;exitDy=0;entryX=0.168;entryY=1;entryDx=0;entryDy=0;entryPerimeter=0;" edge="1" parent="WIyWlLk6GJQsqaUBKTNV-1" source="ABSqNP8Waz9jzryBTXlx-16" target="ABSqNP8Waz9jzryBTXlx-35">
          <mxGeometry width="160" relative="1" as="geometry">
            <mxPoint x="144" y="611" as="sourcePoint" />
            <mxPoint x="360" y="462.00199999999995" as="targetPoint" />
            <Array as="points">
              <mxPoint x="120" y="600" />
              <mxPoint x="350" y="560" />
            </Array>
          </mxGeometry>
        </mxCell>
        <mxCell id="ABSqNP8Waz9jzryBTXlx-16" value="Supervisor" style="swimlane;fontStyle=1;align=center;verticalAlign=top;childLayout=stackLayout;horizontal=1;startSize=26;horizontalStack=0;resizeParent=1;resizeParentMax=0;resizeLast=0;collapsible=1;marginBottom=0;" vertex="1" parent="WIyWlLk6GJQsqaUBKTNV-1">
          <mxGeometry x="40" y="628" width="160" height="34" as="geometry" />
        </mxCell>
        <mxCell id="ABSqNP8Waz9jzryBTXlx-18" value="" style="line;strokeWidth=1;fillColor=none;align=left;verticalAlign=middle;spacingTop=-1;spacingLeft=3;spacingRight=3;rotatable=0;labelPosition=right;points=[];portConstraint=eastwest;strokeColor=inherit;" vertex="1" parent="ABSqNP8Waz9jzryBTXlx-16">
          <mxGeometry y="26" width="160" height="8" as="geometry" />
        </mxCell>
        <mxCell id="ABSqNP8Waz9jzryBTXlx-20" value="Director" style="swimlane;fontStyle=1;align=center;verticalAlign=top;childLayout=stackLayout;horizontal=1;startSize=26;horizontalStack=0;resizeParent=1;resizeParentMax=0;resizeLast=0;collapsible=1;marginBottom=0;" vertex="1" parent="WIyWlLk6GJQsqaUBKTNV-1">
          <mxGeometry x="390" y="628" width="160" height="34" as="geometry" />
        </mxCell>
        <mxCell id="ABSqNP8Waz9jzryBTXlx-21" value="" style="line;strokeWidth=1;fillColor=none;align=left;verticalAlign=middle;spacingTop=-1;spacingLeft=3;spacingRight=3;rotatable=0;labelPosition=right;points=[];portConstraint=eastwest;strokeColor=inherit;" vertex="1" parent="ABSqNP8Waz9jzryBTXlx-20">
          <mxGeometry y="26" width="160" height="8" as="geometry" />
        </mxCell>
        <mxCell id="ABSqNP8Waz9jzryBTXlx-22" value="President" style="swimlane;fontStyle=1;align=center;verticalAlign=top;childLayout=stackLayout;horizontal=1;startSize=26;horizontalStack=0;resizeParent=1;resizeParentMax=0;resizeLast=0;collapsible=1;marginBottom=0;" vertex="1" parent="WIyWlLk6GJQsqaUBKTNV-1">
          <mxGeometry x="570" y="628" width="160" height="34" as="geometry" />
        </mxCell>
        <mxCell id="ABSqNP8Waz9jzryBTXlx-23" value="" style="line;strokeWidth=1;fillColor=none;align=left;verticalAlign=middle;spacingTop=-1;spacingLeft=3;spacingRight=3;rotatable=0;labelPosition=right;points=[];portConstraint=eastwest;strokeColor=inherit;" vertex="1" parent="ABSqNP8Waz9jzryBTXlx-22">
          <mxGeometry y="26" width="160" height="8" as="geometry" />
        </mxCell>
        <mxCell id="ABSqNP8Waz9jzryBTXlx-24" value="" style="endArrow=block;dashed=1;endFill=0;endSize=12;html=1;rounded=0;exitX=0.5;exitY=0;exitDx=0;exitDy=0;entryX=0.332;entryY=1.015;entryDx=0;entryDy=0;entryPerimeter=0;" edge="1" parent="WIyWlLk6GJQsqaUBKTNV-1" source="ABSqNP8Waz9jzryBTXlx-0" target="ABSqNP8Waz9jzryBTXlx-35">
          <mxGeometry width="160" relative="1" as="geometry">
            <mxPoint x="325" y="620" as="sourcePoint" />
            <mxPoint x="401.03999999999996" y="460" as="targetPoint" />
            <Array as="points">
              <mxPoint x="293" y="600" />
              <mxPoint x="380" y="560" />
            </Array>
          </mxGeometry>
        </mxCell>
        <mxCell id="ABSqNP8Waz9jzryBTXlx-25" value="" style="endArrow=block;dashed=1;endFill=0;endSize=12;html=1;rounded=0;exitX=0.5;exitY=0;exitDx=0;exitDy=0;entryX=0.5;entryY=1;entryDx=0;entryDy=0;" edge="1" parent="WIyWlLk6GJQsqaUBKTNV-1" source="ABSqNP8Waz9jzryBTXlx-20" target="ABSqNP8Waz9jzryBTXlx-35">
          <mxGeometry width="160" relative="1" as="geometry">
            <mxPoint x="485" y="620" as="sourcePoint" />
            <mxPoint x="442.0799999999999" y="460.98800000000006" as="targetPoint" />
            <Array as="points">
              <mxPoint x="470" y="600" />
              <mxPoint x="414" y="560" />
            </Array>
          </mxGeometry>
        </mxCell>
        <mxCell id="ABSqNP8Waz9jzryBTXlx-26" value="" style="endArrow=block;dashed=1;endFill=0;endSize=12;html=1;rounded=0;exitX=0.5;exitY=0;exitDx=0;exitDy=0;entryX=0.695;entryY=1;entryDx=0;entryDy=0;entryPerimeter=0;" edge="1" parent="WIyWlLk6GJQsqaUBKTNV-1" source="ABSqNP8Waz9jzryBTXlx-22" target="ABSqNP8Waz9jzryBTXlx-35">
          <mxGeometry width="160" relative="1" as="geometry">
            <mxPoint x="675" y="600" as="sourcePoint" />
            <mxPoint x="480.05999999999995" y="464.0039999999999" as="targetPoint" />
            <Array as="points">
              <mxPoint x="650" y="600" />
              <mxPoint x="450" y="560" />
            </Array>
          </mxGeometry>
        </mxCell>
        <mxCell id="ABSqNP8Waz9jzryBTXlx-30" value="Office" style="swimlane;fontStyle=1;align=center;verticalAlign=top;childLayout=stackLayout;horizontal=1;startSize=26;horizontalStack=0;resizeParent=1;resizeParentMax=0;resizeLast=0;collapsible=1;marginBottom=0;" vertex="1" parent="WIyWlLk6GJQsqaUBKTNV-1">
          <mxGeometry x="50" y="415" width="191" height="86" as="geometry" />
        </mxCell>
        <mxCell id="ABSqNP8Waz9jzryBTXlx-31" value="- roles: List&lt;Role*&gt;" style="text;strokeColor=none;fillColor=none;align=left;verticalAlign=top;spacingLeft=4;spacingRight=4;overflow=hidden;rotatable=0;points=[[0,0.5],[1,0.5]];portConstraint=eastwest;" vertex="1" parent="ABSqNP8Waz9jzryBTXlx-30">
          <mxGeometry y="26" width="191" height="26" as="geometry" />
        </mxCell>
        <mxCell id="ABSqNP8Waz9jzryBTXlx-32" value="" style="line;strokeWidth=1;fillColor=none;align=left;verticalAlign=middle;spacingTop=-1;spacingLeft=3;spacingRight=3;rotatable=0;labelPosition=right;points=[];portConstraint=eastwest;strokeColor=inherit;" vertex="1" parent="ABSqNP8Waz9jzryBTXlx-30">
          <mxGeometry y="52" width="191" height="8" as="geometry" />
        </mxCell>
        <mxCell id="ABSqNP8Waz9jzryBTXlx-33" value="+ requestPurchase(double): void" style="text;strokeColor=none;fillColor=none;align=left;verticalAlign=top;spacingLeft=4;spacingRight=4;overflow=hidden;rotatable=0;points=[[0,0.5],[1,0.5]];portConstraint=eastwest;" vertex="1" parent="ABSqNP8Waz9jzryBTXlx-30">
          <mxGeometry y="60" width="191" height="26" as="geometry" />
        </mxCell>
        <mxCell id="ABSqNP8Waz9jzryBTXlx-35" value="&lt;p style=&quot;margin:0px;margin-top:4px;text-align:center;&quot;&gt;&lt;i&gt;&amp;lt;&amp;lt;Interface&amp;gt;&amp;gt;&lt;/i&gt;&lt;br&gt;&lt;b&gt;Role&lt;/b&gt;&lt;/p&gt;&lt;hr size=&quot;1&quot;&gt;&lt;p style=&quot;margin:0px;margin-left:4px;&quot;&gt;- superior: Role&lt;br&gt;&lt;/p&gt;&lt;p style=&quot;margin:0px;margin-left:4px;&quot;&gt;- budget: double&lt;/p&gt;&lt;p style=&quot;margin:0px;margin-left:4px;&quot;&gt;- allowanceThreshold: double&lt;br&gt;&lt;/p&gt;&lt;hr size=&quot;1&quot;&gt;&lt;p style=&quot;margin:0px;margin-left:4px;&quot;&gt;requestPurchase(double value)&lt;br&gt;&lt;/p&gt;" style="verticalAlign=top;align=left;overflow=fill;fontSize=12;fontFamily=Helvetica;html=1;" vertex="1" parent="WIyWlLk6GJQsqaUBKTNV-1">
          <mxGeometry x="319" y="390" width="190" height="130" as="geometry" />
        </mxCell>
        <mxCell id="ABSqNP8Waz9jzryBTXlx-36" value="" style="endArrow=diamondThin;endFill=0;endSize=24;html=1;rounded=0;exitX=0;exitY=0.5;exitDx=0;exitDy=0;entryX=1;entryY=0.5;entryDx=0;entryDy=0;" edge="1" parent="WIyWlLk6GJQsqaUBKTNV-1" source="ABSqNP8Waz9jzryBTXlx-35" target="ABSqNP8Waz9jzryBTXlx-31">
          <mxGeometry width="160" relative="1" as="geometry">
            <mxPoint x="220" y="310" as="sourcePoint" />
            <mxPoint x="380" y="310" as="targetPoint" />
          </mxGeometry>
        </mxCell>
        <mxCell id="ABSqNP8Waz9jzryBTXlx-39" value="NullRole" style="swimlane;fontStyle=1;align=center;verticalAlign=top;childLayout=stackLayout;horizontal=1;startSize=26;horizontalStack=0;resizeParent=1;resizeParentMax=0;resizeLast=0;collapsible=1;marginBottom=0;" vertex="1" parent="WIyWlLk6GJQsqaUBKTNV-1">
          <mxGeometry x="660" y="577" width="160" height="34" as="geometry" />
        </mxCell>
        <mxCell id="ABSqNP8Waz9jzryBTXlx-40" value="" style="line;strokeWidth=1;fillColor=none;align=left;verticalAlign=middle;spacingTop=-1;spacingLeft=3;spacingRight=3;rotatable=0;labelPosition=right;points=[];portConstraint=eastwest;strokeColor=inherit;" vertex="1" parent="ABSqNP8Waz9jzryBTXlx-39">
          <mxGeometry y="26" width="160" height="8" as="geometry" />
        </mxCell>
        <mxCell id="ABSqNP8Waz9jzryBTXlx-41" value="" style="endArrow=block;dashed=1;endFill=0;endSize=12;html=1;rounded=0;exitX=0.5;exitY=0;exitDx=0;exitDy=0;entryX=0.842;entryY=1;entryDx=0;entryDy=0;entryPerimeter=0;" edge="1" source="ABSqNP8Waz9jzryBTXlx-39" parent="WIyWlLk6GJQsqaUBKTNV-1" target="ABSqNP8Waz9jzryBTXlx-35">
          <mxGeometry width="160" relative="1" as="geometry">
            <mxPoint x="745" y="523" as="sourcePoint" />
            <mxPoint x="531.5" y="443" as="targetPoint" />
            <Array as="points">
              <mxPoint x="740" y="560" />
              <mxPoint x="479" y="550" />
            </Array>
          </mxGeometry>
        </mxCell>
      </root>
    </mxGraphModel>
  </diagram>
</mxfile>
